PathFileType	4	(X/Y/Z)	D:\Share\Shared_Data\Ergonomics\Sit To Stand Pertubation\S1\Perturbed_NoHarness.trc
DataRate	CameraRate	NumFrames	NumMarkers	Units	OrigDataRate	OrigDataStartFrame	OrigNumFrames	
100	100	6	18	m	100	5247	231
Frame#	Time	L_ASIS			R_ASIS			R_Pelvis			V_Sacral			L_Pelvis			Clavical			R_Acromium			L_Acromium			Sternum			Torso			R_Thigh_Med			R_Thigh_Lat			R_Thigh			R_Shank_Med			R_Shank_Lat			R_Shank			R_Heel			R_Toe			
		X1	Y1	Z1	X2	Y2	Z2	X3	Y3	Z3	X4	Y4	Z4	X5	Y5	Z5	X6	Y6	Z6	X7	Y7	Z7	X8	Y8	Z8	X9	Y9	Z9	X10	Y10	Z10	X11	Y11	Z11	X12	Y12	Z12	X13	Y13	Z13	X14	Y14	Z14	X15	Y15	Z15	X16	Y16	Z16	X17	Y17	Z17	X18	Y18	Z18	

5247	52.46	0.11664104	0.61578961	-0.087678802	0.087541779	0.6138197	0.11312703	0.008624012	0.65523267	0.13579912	-0.10892533	0.62349127	0.006071816	0.024525772	0.64657227	-0.12726535	0.34629004	0.82093793	0.0098441753	0.35079233	0.92661218	0.14212059	0.29110773	0.93178784	-0.17895403	0.33422983	0.84923041	0.10486089	0.34310214	0.83665961	-0.041505058	0.32440375	0.41494916	0.042534809	0.32170139	0.43454138	0.16266266	0.20096062	0.55940295	0.11396332	0.33000085	0.095398758	0.10314323	0.30513538	0.09903022	0.18200513	0.31657452	0.31126196	0.18620584	0.26127997	0.02941917	0.12870877	0.46752698	0.059768551	0.14582903
5248	52.47	0.12149501	0.61563806	-0.087400063	0.091887589	0.6137309	0.11321567	0.01310052	0.65556549	0.13568004	-0.10437414	0.6242052	0.0057612543	0.029563419	0.64662109	-0.12723328	0.35300043	0.81880566	0.0097667704	0.3578656	0.92493066	0.14143787	0.29840292	0.93015826	-0.1789872	0.34084094	0.84737335	0.1046125	0.34960321	0.83458856	-0.041448673	0.32763696	0.41441769	0.041987869	0.32538922	0.4340979	0.16217258	0.20504695	0.55938007	0.1134272	0.33064508	0.095170677	0.10286423	0.30575046	0.099003189	0.18178658	0.31916394	0.31105804	0.18571706	0.26140137	0.029498283	0.12869527	0.46765274	0.059690197	0.14587778
5249	52.48	0.12633714	0.61548926	-0.08712854	0.096249382	0.61367065	0.11330332	0.017555511	0.65577594	0.13559857	-0.099786148	0.62471686	0.0054826107	0.034549156	0.64658344	-0.12722964	0.35926282	0.81708905	0.0096864901	0.36446375	0.92365302	0.14079521	0.30518411	0.92874274	-0.17907991	0.34707556	0.84592218	0.10438244	0.35575174	0.83290186	-0.041427814	0.33102612	0.41381525	0.04136039	0.32926611	0.43360406	0.1616124	0.2093089	0.55928381	0.11285435	0.33130368	0.094920403	0.10255495	0.30640009	0.09898098	0.18153554	0.32187433	0.31082968	0.18516513	0.26153415	0.029601961	0.12867917	0.46776935	0.059513783	0.14590312
5250	52.49	0.13116452	0.61534259	-0.08686528	0.1006246	0.61364972	0.11339095	0.021991205	0.65588269	0.13555191	-0.095167564	0.62507062	0.0052403173	0.039482933	0.64648431	-0.12724834	0.3650849	0.81580438	0.0096042347	0.37059363	0.92279254	0.14020531	0.31145944	0.92756854	-0.17923326	0.35294061	0.84489062	0.10417274	0.3615556	0.83161658	-0.041441093	0.33455173	0.41314813	0.04065147	0.33330487	0.43306131	0.16097984	0.21372433	0.55912561	0.11224339	0.33196902	0.094649788	0.10221615	0.30707971	0.098965378	0.18125343	0.32469147	0.31057843	0.18455084	0.26167712	0.029728216	0.12866112	0.46787805	0.059229935	0.14590265
5251	52.5	0.13597447	0.61520502	-0.086611694	0.10501078	0.61368298	0.11347907	0.026411148	0.65591046	0.13553543	-0.090524307	0.62531763	0.005037652	0.044366329	0.6463551	-0.12728294	0.37048563	0.81496436	0.0095205383	0.37626913	0.92235907	0.13967798	0.31724567	0.92666223	-0.1794469	0.35844891	0.84428918	0.10398428	0.36702792	0.8307467	-0.041487064	0.33819064	0.41242386	0.039861496	0.33747507	0.43247253	0.16027373	0.21826926	0.55891956	0.11159332	0.332634	0.094361229	0.10184906	0.30778406	0.098957878	0.18094234	0.32759863	0.3103064	0.18387581	0.2618288	0.02987439	0.12864139	0.46798047	0.058832348	0.14587428
5252	52.51	0.14076381	0.61508954	-0.086369591	0.10940508	0.61378894	0.1135677	0.030819324	0.65588947	0.13554335	-0.085862457	0.62551379	0.0048767223	0.049201485	0.64623181	-0.12732732	0.37549402	0.81457776	0.0094355488	0.38150964	0.92235883	0.13921989	0.32256628	0.92604877	-0.17971909	0.36361758	0.84412421	0.10381683	0.37218582	0.83030334	-0.041564209	0.34191705	0.41165115	0.038992313	0.34174387	0.43184207	0.15949428	0.22291882	0.55868195	0.11090374	0.33329187	0.094057671	0.10145548	0.3085072	0.098959618	0.1806051	0.33057635	0.31001562	0.18314281	0.2619877	0.030037182	0.12862009	0.46807806	0.058318985	0.14581644
